<?xml version="1.0" standalone="no"?>
<!DOCTYPE svg PUBLIC "-//W3C//DTD SVG 20010904//EN"
 "http://www.w3.org/TR/2001/REC-SVG-20010904/DTD/svg10.dtd">
<svg version="1.0" xmlns="http://www.w3.org/2000/svg"
 width="600.000000pt" height="600.000000pt" viewBox="0 0 600.000000 600.000000"
 preserveAspectRatio="xMidYMid meet">
<metadata>
Created by potrace 1.16, written by Peter Selinger 2001-2019
</metadata>
<g transform="translate(0.000000,600.000000) scale(0.100000,-0.100000)"
fill="#000000" stroke="none">
<path d="M2914 5689 c-50 -24 -214 -205 -214 -236 0 -10 61 -43 115 -61 52
-19 108 -23 168 -13 65 11 205 74 214 97 11 28 -146 194 -210 222 -15 7 -29
12 -30 12 -1 -1 -20 -10 -43 -21z"/>
<path d="M2495 5435 c-424 -125 -784 -427 -980 -823 -63 -127 -105 -249 -137
-393 -19 -90 -22 -132 -22 -319 0 -184 3 -229 22 -313 49 -223 146 -443 269
-617 62 -86 272 -310 292 -310 4 0 3 30 -2 68 -12 89 -2 291 19 372 40 157
140 325 266 445 l83 80 -17 85 c-10 47 -22 121 -27 165 -6 44 -15 116 -22 160
-7 50 -9 148 -6 260 13 402 109 730 314 1063 71 116 72 114 -52 77z"/>
<path d="M3317 5447 c4 -7 22 -33 40 -58 18 -26 33 -51 33 -58 0 -6 4 -11 8
-11 7 0 117 -212 160 -310 11 -25 32 -86 46 -135 15 -50 30 -103 35 -120 6
-16 20 -77 33 -135 20 -94 22 -132 23 -355 0 -246 -6 -318 -42 -510 -9 -44
-18 -92 -20 -107 -4 -21 3 -33 38 -65 36 -32 108 -113 169 -189 48 -59 88
-150 142 -322 14 -47 25 -268 16 -321 -4 -24 -6 -47 -3 -49 3 -3 45 35 93 85
211 218 355 489 424 800 19 84 22 129 22 313 0 237 -13 329 -76 514 -164 490
-583 888 -1079 1026 -46 12 -67 15 -62 7z"/>
<path d="M3195 5384 c-98 -55 -156 -69 -280 -69 -107 0 -112 1 -188 38 -43 21
-80 37 -82 35 -9 -10 -85 -141 -85 -147 0 -3 -9 -17 -20 -31 -11 -14 -20 -31
-20 -38 0 -8 -8 -26 -18 -40 -56 -81 -159 -399 -181 -557 -6 -44 -16 -120 -22
-170 -13 -93 -15 -252 -4 -285 7 -21 120 -93 212 -136 263 -121 587 -126 878
-15 41 16 189 92 195 101 3 4 15 12 26 18 19 10 22 22 26 112 11 224 -37 565
-96 677 -9 18 -16 39 -16 47 0 29 -110 249 -186 373 -41 68 -76 122 -77 122
-1 -1 -29 -16 -62 -35z m-113 -450 c86 -30 158 -96 206 -188 23 -45 26 -62 25
-146 0 -81 -4 -104 -27 -155 -57 -127 -171 -197 -321 -197 -125 0 -235 52
-287 136 -71 113 -72 116 -72 211 -1 85 1 94 37 161 46 86 83 125 145 156 97
47 202 55 294 22z"/>
<path d="M2925 4885 c-5 -2 -29 -9 -52 -15 -82 -21 -153 -104 -198 -233 -23
-67 18 -180 89 -245 48 -45 70 -56 149 -77 85 -22 208 21 264 92 102 130 99
270 -9 388 -26 29 -65 60 -86 68 -38 15 -139 30 -157 22z"/>
<path d="M2304 3978 c4 -18 11 -64 17 -103 6 -38 15 -86 19 -105 5 -19 14 -57
19 -85 16 -76 37 -162 61 -245 12 -41 25 -91 30 -110 29 -107 187 -513 226
-581 21 -36 54 -48 107 -41 30 5 27 -18 31 212 2 94 16 132 65 173 73 61 168
60 230 -2 33 -33 39 -45 44 -101 4 -35 7 -98 7 -140 0 -43 3 -92 6 -109 6 -27
10 -31 40 -31 31 0 36 5 59 53 14 30 25 58 25 63 0 8 20 52 62 135 10 20 18
43 18 51 0 8 11 37 24 64 13 27 29 70 36 94 7 25 18 59 25 75 7 17 16 41 19
55 18 67 29 107 36 125 4 11 13 47 20 80 7 33 16 65 20 70 4 6 10 28 13 50 9
64 23 130 29 141 4 6 9 37 12 70 3 32 8 86 11 118 5 56 5 59 -12 44 -53 -45
-289 -136 -410 -157 -125 -22 -192 -31 -230 -31 -44 0 -219 25 -273 40 -19 5
-51 13 -70 18 -51 13 -205 79 -248 105 -20 13 -45 27 -56 30 -16 7 -18 4 -12
-25z"/>
<path d="M2243 3473 c-95 -106 -108 -123 -147 -198 -67 -125 -110 -290 -109
-420 0 -86 30 -248 66 -358 39 -122 115 -160 177 -88 14 16 49 61 78 102 52
72 174 190 238 230 36 22 39 29 25 57 -5 9 -16 34 -25 55 -22 50 -46 108 -57
132 -19 44 -118 355 -139 440 -13 50 -28 96 -35 103 -8 9 -24 -2 -72 -55z"/>
<path d="M3612 3518 c-5 -7 -13 -29 -16 -48 -8 -40 -44 -164 -86 -295 -22 -70
-126 -336 -156 -402 -3 -6 22 -30 55 -53 89 -60 176 -147 241 -242 31 -46 68
-88 82 -95 37 -19 92 0 117 40 20 32 80 236 80 273 0 10 5 51 11 89 25 165
-38 401 -154 575 -31 46 -145 170 -157 170 -4 0 -11 -6 -17 -12z"/>
<path d="M2954 3074 c-52 -22 -70 -54 -78 -139 -4 -41 -4 -108 0 -149 l7 -74
53 -7 c80 -10 162 3 169 26 10 31 -3 54 -40 72 -20 9 -41 28 -47 42 -10 22 -8
29 11 49 13 13 33 27 46 30 26 7 37 36 28 77 -7 35 -28 55 -78 72 -33 12 -45
12 -71 1z"/>
<path d="M2510 2634 c-68 -46 -189 -189 -173 -205 12 -12 134 -54 228 -78 121
-30 236 -43 380 -43 221 0 399 34 618 121 27 10 27 12 13 39 -13 26 -88 107
-149 162 l-28 24 2 -88 c1 -70 -2 -91 -15 -104 -15 -15 -58 -17 -404 -20 -299
-1 -393 1 -412 11 -23 12 -25 19 -30 105 l-5 92 -25 -16z"/>
<path d="M2770 2640 l-175 -5 0 -60 0 -60 140 -8 c186 -10 587 1 597 16 4 7 8
35 8 63 0 38 -4 53 -16 58 -17 7 -276 5 -554 -4z"/>
<path d="M4103 2031 c-55 -14 -97 -46 -123 -92 l-25 -44 0 -315 c0 -173 3
-327 8 -343 11 -41 73 -104 115 -118 20 -7 71 -13 113 -13 119 1 186 42 217
133 18 52 15 624 -2 674 -18 48 -41 74 -90 99 -43 22 -161 33 -213 19z m138
-170 l29 -29 0 -261 c0 -259 0 -260 -24 -287 -30 -36 -86 -39 -119 -6 -22 22
-22 27 -22 293 l0 271 28 24 c38 32 72 31 108 -5z"/>
<path d="M410 1960 l0 -70 75 0 75 0 0 -390 0 -390 75 0 75 0 2 388 3 387 78
3 77 3 0 69 0 70 -230 0 -230 0 0 -70z"/>
<path d="M1470 1571 l0 -461 138 0 c194 1 243 16 286 89 22 37 33 167 21 257
-6 50 -13 64 -46 98 -39 38 -39 39 -19 53 40 28 50 65 50 191 0 107 -2 122
-23 152 -43 65 -73 75 -249 78 l-158 4 0 -461z m261 300 c21 -17 24 -27 24
-94 0 -96 -16 -117 -87 -117 l-48 0 0 115 0 115 44 0 c28 0 52 -7 67 -19z m5
-374 c23 -20 28 -34 32 -85 7 -98 -3 -131 -45 -148 -19 -8 -49 -14 -67 -12
l-31 3 -3 119 c-1 66 0 126 2 133 9 23 82 16 112 -10z"/>
<path d="M2216 2013 c-12 -40 -206 -877 -206 -890 0 -18 146 -19 153 0 2 6 10
45 17 85 l13 72 87 0 88 0 7 -37 c3 -21 11 -59 17 -85 l10 -48 74 0 c70 0 74
1 74 23 -1 12 -47 218 -104 457 l-102 435 -61 3 c-52 2 -62 0 -67 -15z m94
-433 c11 -63 24 -125 27 -137 5 -22 2 -23 -57 -23 -54 0 -61 2 -56 18 3 9 15
69 27 132 20 109 27 135 34 128 2 -2 13 -55 25 -118z"/>
<path d="M2600 1960 l0 -70 75 0 75 0 0 -390 0 -390 75 0 75 0 2 388 3 387 78
3 77 3 0 69 0 70 -230 0 -230 0 0 -70z"/>
<path d="M3400 1960 l0 -70 75 0 75 0 0 -390 0 -390 75 0 75 0 2 388 3 387 78
3 77 3 0 69 0 70 -230 0 -230 0 0 -70z"/>
<path d="M4562 1638 l3 -393 25 -45 c37 -66 93 -94 189 -94 119 1 184 43 210
139 7 26 11 174 11 413 l0 372 -75 0 -75 0 0 -354 c0 -208 -4 -365 -10 -381
-21 -55 -99 -51 -120 8 -6 19 -10 161 -10 378 l0 349 -76 0 -75 0 3 -392z"/>
<path d="M5140 1571 l0 -461 75 0 75 0 2 193 3 192 27 3 c29 3 21 22 115 -288
l29 -95 82 -3 c45 -2 82 1 82 5 0 4 -29 96 -65 203 l-64 195 31 24 c53 42 68
90 68 225 0 148 -16 191 -88 234 -45 26 -54 27 -209 31 l-163 3 0 -461z m287
285 c19 -23 23 -38 23 -97 0 -61 -3 -73 -25 -94 -20 -21 -34 -25 -80 -25 l-55
0 0 118 c0 65 3 122 8 126 4 4 29 6 56 3 38 -3 55 -11 73 -31z"/>
<path d="M970 1440 l0 -70 170 0 170 0 0 70 0 70 -170 0 -170 0 0 -70z"/>
<path d="M992 787 c-32 -34 -30 -89 4 -116 15 -12 32 -21 39 -21 7 0 23 -8 36
-19 l23 -18 -23 -8 c-13 -4 -36 -1 -53 6 -27 11 -32 10 -44 -6 -32 -43 -5 -65
81 -65 69 0 105 29 105 83 0 44 -15 62 -73 86 -59 25 -54 45 8 35 42 -6 44 -5
51 21 9 36 -7 45 -77 45 -45 0 -60 -4 -77 -23z"/>
<path d="M1190 675 l0 -135 35 0 c35 0 35 0 35 45 0 45 0 45 34 45 22 0 45 9
62 23 23 20 27 32 27 72 0 69 -22 85 -119 85 l-74 0 0 -135z"/>
<path d="M1437 683 c-26 -70 -47 -131 -47 -135 0 -5 18 -8 39 -8 36 0 40 3 46
30 6 27 10 30 45 30 33 0 39 -4 49 -30 8 -26 15 -30 45 -30 47 0 46 7 -8 150
l-43 115 -39 3 -39 3 -48 -128z"/>
<path d="M1715 788 c-73 -57 -71 -194 4 -232 32 -17 137 -22 160 -7 9 6 12 18
7 36 -7 26 -9 27 -51 22 -57 -8 -95 19 -95 68 0 49 39 78 95 69 40 -5 43 -4
49 21 4 14 4 30 1 35 -4 6 -37 10 -74 10 -55 0 -74 -4 -96 -22z"/>
<path d="M1920 675 l0 -135 85 0 85 0 0 30 c0 29 -1 30 -50 30 -47 0 -50 2
-50 25 0 23 4 25 45 25 43 0 45 1 45 30 0 29 -2 30 -45 30 -38 0 -45 3 -45 20
0 17 7 20 45 20 43 0 45 1 45 30 l0 30 -80 0 -80 0 0 -135z"/>
<path d="M2200 780 c0 -28 2 -30 40 -30 l40 0 0 -105 0 -105 35 0 35 0 0 105
0 105 35 0 c32 0 35 2 35 30 l0 30 -110 0 -110 0 0 -30z"/>
<path d="M2440 675 l0 -135 35 0 c35 0 35 0 35 45 0 25 4 45 9 45 5 0 21 -20
35 -45 l27 -45 74 0 73 0 7 30 c6 27 10 30 45 30 33 0 39 -4 49 -30 8 -26 15
-30 45 -30 47 0 46 7 -8 150 l-43 115 -39 3 -39 3 -46 -122 -46 -121 -25 43
c-23 39 -24 46 -12 64 8 10 14 38 14 62 0 58 -23 73 -117 73 l-73 0 0 -135z"/>
<path d="M2911 798 c0 -7 19 -67 43 -133 l43 -120 39 -3 39 -3 43 118 c52 146
52 153 8 153 -34 0 -35 -2 -56 -67 -13 -38 -26 -71 -29 -76 -4 -4 -18 26 -31
68 l-24 75 -38 0 c-24 0 -38 -5 -37 -12z"/>
<path d="M3190 675 l0 -135 85 0 85 0 0 30 c0 29 -1 30 -50 30 -47 0 -50 2
-50 25 0 23 4 25 45 25 43 0 45 1 45 30 0 29 -2 30 -45 30 -38 0 -45 3 -45 20
0 17 7 20 45 20 43 0 45 1 45 30 l0 30 -80 0 -80 0 0 -135z"/>
<path d="M3390 675 l0 -135 85 0 85 0 0 30 c0 29 -1 30 -50 30 l-50 0 0 105 0
105 -35 0 -35 0 0 -135z"/>
<path d="M3707 683 c-26 -70 -47 -131 -47 -135 0 -5 18 -8 39 -8 36 0 40 3 46
30 6 27 10 30 45 30 33 0 39 -4 49 -30 8 -26 15 -30 45 -30 47 0 46 7 -8 150
l-43 115 -39 3 -39 3 -48 -128z"/>
<path d="M3985 788 c-73 -57 -71 -194 4 -232 30 -16 116 -21 159 -10 20 6 22
12 22 80 l0 74 -60 0 -60 0 0 -30 c0 -25 4 -30 25 -30 19 0 25 -5 25 -21 0
-19 -4 -21 -32 -15 -40 8 -58 30 -58 71 0 48 31 70 99 70 51 0 56 2 59 24 5
33 -12 41 -89 41 -53 0 -72 -4 -94 -22z"/>
<path d="M4220 675 l0 -135 85 0 85 0 0 30 c0 29 -1 30 -50 30 -47 0 -50 2
-50 25 0 23 4 25 45 25 43 0 45 1 45 30 0 29 -2 30 -45 30 -38 0 -45 3 -45 20
0 17 7 20 45 20 43 0 45 1 45 30 l0 30 -80 0 -80 0 0 -135z"/>
<path d="M4420 675 l0 -135 35 0 35 0 0 73 0 72 48 -72 c44 -69 49 -73 85 -73
l37 0 0 135 0 135 -35 0 -35 0 0 -72 0 -73 -46 73 c-44 69 -47 72 -85 72 l-39
0 0 -135z"/>
<path d="M4745 788 c-73 -57 -71 -194 4 -232 32 -17 137 -22 160 -7 9 6 12 18
7 36 -7 26 -9 27 -51 22 -57 -8 -95 19 -95 68 0 49 39 78 95 69 38 -5 43 -4
49 18 11 38 85 -112 86 -174 l0 -48 35 0 35 0 0 48 c0 36 10 64 40 120 50 91
50 102 5 102 -31 0 -37 -5 -56 -42 l-22 -43 -20 42 -20 42 -112 0 c-101 1
-116 -2 -140 -21z"/>
</g>
</svg>
